<svg xmlns="http://www.w3.org/2000/svg" viewBox="0 0 200 200"><defs><linearGradient id="c" x1="0%" y1="0%" x2="100%" y2="100%"><stop offset="0%" stop-color="#FFF" stop-opacity=".95"/><stop offset="100%" stop-color="#C4F0DC" stop-opacity=".9"/></linearGradient><linearGradient id="d" x1="0%" y1="0%" x2="100%" y2="0%"><stop offset="0%" stop-color="#FFF" stop-opacity=".6"/><stop offset="50%" stop-color="#FFF" stop-opacity=".95"/><stop offset="100%" stop-color="#FFF" stop-opacity=".6"/></linearGradient><radialGradient id="a" cx="50%" cy="40%" r="60%" fx="30%" fy="30%"><stop offset="0%" stop-color="#3DAF7A"/><stop offset="60%" stop-color="#1B7E54"/><stop offset="100%" stop-color="#0E5A3A"/></radialGradient><clipPath id="b"><circle cx="100" cy="100" r="94"/></clipPath></defs><circle cx="100" cy="100" r="97" fill="none" stroke="#A4D8B8" stroke-width="1.5" opacity=".5"/><circle cx="100" cy="100" r="94" fill="url(#a)"/><g clip-path="url(#b)"><path d="M100 50a35 35 0 110 70 25 25 0 100-70z" fill="url(#c)" transform="rotate(-28 100 85)"/><g fill="none" stroke="url(#d)" stroke-width="3.2" stroke-linecap="round"><path d="M40 125q20-8 40 0t40 0 40 0"/><path d="M35 140q20-8 40 0t40 0 50 0"/><path d="M45 155q20-8 40 0t40 0 30 0"/></g><circle cx="78" cy="132" r="2.5" fill="#FFF" opacity=".7"/><circle cx="132" cy="148" r="2" fill="#FFF" opacity=".6"/><circle cx="95" cy="118" r="1.8" fill="#FFF" opacity=".5"/></g><circle cx="100" cy="100" r="92" fill="none" stroke="#FFF" stroke-width=".8" opacity=".25"/></svg>